<svg id="Layer_1" enable-background="new 0 0 512 512" height="512" viewBox="0 0 512 512" width="512" xmlns="http://www.w3.org/2000/svg" fill="#D2D2D2"><path d="m482.002 236h-20.43c-2.065-24.049-11.474-47.629-26.519-65.928-15.028-18.281-42.676-40.072-89.04-40.072-30.248 0-58.497 14.777-82.091 42.836-26.875-11.208-61.114-22.836-97.894-22.836-45.809 0-73.455 21.736-88.582 39.97-5.973 7.201-11.378 16.279-16.117 27.038l-31.331-.008c-8.019 0-15.549 3.12-21.208 8.79-5.671 5.66-8.79 13.2-8.79 21.21 0 7.99 3.469 15.81 9.529 21.45 5.89 5.49 13.519 8.53 21.468 8.55h19.435c2.048 23.621 11.294 46.365 26.555 64.928 15.029 18.281 42.678 40.072 89.041 40.072 30.197 0 58.418-14.777 82.008-42.836 26.877 11.208 61.129 22.836 97.977 22.836 45.809 0 73.455-21.736 88.582-39.97 6.482-7.814 11.946-16.546 16.295-26.03h31.113c16.54 0 29.997-13.458 29.997-30s-13.457-30-29.998-30zm-389.164-33.26c12.39-14.936 35.145-32.74 73.19-32.74 36.364 0 70.88 12.896 96.904 24.145 21.508 9.78 37.413 17.72 37.572 17.799.022.011.045.018.067.029s.042.025.064.036c.696.336 64.273 30.865 100.623 40.164-.811 5.825-2.332 13.238-4.932 19.438-37.781-9.604-108.276-43.268-109.03-43.629-.023-.011-.048-.019-.071-.03-.025-.012-.048-.027-.074-.039l-36.997-17c-.057-.026-.116-.044-.174-.07-.051-.022-.097-.05-.148-.071-23.166-9.671-53.626-20.772-83.804-20.772-26.044 0-48.338 10.397-62.118 28.738l-20.779-1.014c3.028-5.832 6.273-10.845 9.707-14.984zm229.384-2.695c8.132-6.741 15.986-10.045 23.791-10.045 19.242 0 34.003 6.56 43.87 19.497 5.505 7.218 8.514 15.063 10.155 21.614-23.106-6.849-56.61-21.333-77.816-31.066zm-37.159 64.471c.958-4.861 1.837-9.317 3.285-13.947 19.417 8.995 63.627 28.843 95.257 38.251-8.054 7.25-20.014 13.181-37.592 13.181-22.949 0-46.886-7.591-66.776-15.409 3.113-8.313 4.532-15.512 5.826-22.076zm-254.126-7.516c-2.76 0-5.649-1.18-7.749-3.16-2.09-1.98-3.19-4.34-3.19-6.84.01-5.5 4.5-9.99 9.999-10h37.75l40.081 1.955c5.251 1.019 10.771 2.307 16.411 3.855.86.24 1.75.36 2.639.36 4.49 0 8.459-3.03 9.639-7.37.71-2.57.37-5.27-.95-7.59-1.329-2.32-3.48-3.99-6.049-4.69-.725-.198-1.442-.38-2.164-.571 9.92-8.336 23.363-12.949 38.673-12.949 22.672 0 46.364 7.451 66.139 15.191-4.931 11.257-6.096 19.862-7.074 27.087-.463 3.418-.878 6.462-1.638 9.478-.643-.282-1.285-.563-1.903-.866-2.62-1.27-4.819-2.32-6.91-3.33-1.37-.65-2.82-.98-4.319-.98-3.83 0-7.37 2.23-9.019 5.68-1.16 2.41-1.3 5.12-.42 7.64.89 2.52 2.699 4.54 5.109 5.7 2.04.97 4.21 2.02 6.859 3.3.712.342 1.444.675 2.218 1.015.309.136-9.956 15.455-11.083 16.913-33.14-15.976-68.328-32.049-102.377-37.698l-.09-.01c-.232-.036-.469-.056-.706-.076l-.323-.035-39.997-2zm158.63 55.083c-8.057 6.643-15.83 9.917-23.539 9.917-37.808 0-50.112-24.385-54.117-40.321 23.167 5.702 48.347 16.375 77.656 30.404zm-23.539 49.917c-38.555 0-61.301-17.823-73.594-32.774-12.203-14.844-19.783-32.885-21.859-51.684l20.274 1.015c1.478 9.84 5.372 23.938 15.451 36.811 9.512 12.149 27.596 26.632 59.728 26.632 16.842 0 32.649-8.585 48.338-26.256.022-.024.042-.049.064-.073.013-.015.026-.028.039-.043.019-.021.037-.043.056-.064 9.835-10.819 27.455-35.565 30.385-60.603.791-6.761 1.801-13.211 5.622-21.864l19.557 8.986c-2.3 6.659-3.488 12.681-4.647 18.564-1.683 8.54-3.274 16.606-8.399 26.862-5.515 10.817-12.201 23.237-19.999 33.406-14.368 18.743-38.353 41.085-71.016 41.085zm253.176-52.74c-12.39 14.936-35.145 32.74-73.19 32.74-31.418 0-61.41-9.588-85.761-19.441 3.791-5.899 7.249-11.981 10.386-17.862 21.857 8.672 48.7 17.303 75.375 17.303 26.589 0 48.579-11.097 62.256-31.316.31-.329.606-.677.876-1.055 11.405-15.969 12.739-41.549 12.854-44.413.016-.396.002-.785-.027-1.17 0-.024.003-.047.002-.071-.232-7.937-2.275-28.365-16.191-46.609-9.523-12.484-27.622-27.366-59.771-27.366-14.817 0-29.334 6.995-43.236 20.781-4.657-2.265-11.503-5.554-19.74-9.394 14.625-15.966 35.783-31.387 62.976-31.387 38.555 0 61.301 17.823 73.593 32.774 14.235 17.314 22.399 40.359 22.399 63.226 0 .14.015.275.021.413-.005.135-.02.267-.02.404 0 11.127-2.051 22.638-5.94 33.483-.435.627-.804 1.31-1.091 2.042-3.921 9.972-9.227 19.029-15.771 26.918zm62.798-33.26h-23.735c1.682-6.6 2.81-13.316 3.353-20h20.382c5.514 0 9.999 4.486 9.999 10s-4.485 10-9.999 10z"/><path d="m165.487 257.28h.01c1.22.5 2.51.76 3.82.76 4.06 0 7.69-2.43 9.239-6.18 2.11-5.09-.32-10.95-5.41-13.06-1.23-.51-2.51-.77-3.82-.77-4.069 0-7.689 2.43-9.249 6.18-2.11 5.1.32 10.96 5.41 13.07z"/></svg>